<svg aria-hidden="true" style="position: absolute; width: 0; height: 0; overflow: hidden;" version="1.1" xmlns="http://www.w3.org/2000/svg" xmlns:xlink="http://www.w3.org/1999/xlink">
<defs>
<symbol id="iconcalculator" viewBox="0 0 32 32">
<path d="M25.714 0h-19.427c-1.167 0-2.112 0.946-2.112 2.112v27.775c0 1.167 0.946 2.112 2.112 2.112h19.427c1.167 0 2.112-0.946 2.112-2.112v-27.775c0-1.167-0.946-2.112-2.112-2.112zM7.527 23.903v-3.005c0-0.24 0.195-0.435 0.435-0.435h3.005c0.24 0 0.435 0.195 0.435 0.435v3.005c0 0.24-0.195 0.435-0.435 0.435h-3.005c-0.24 0-0.435-0.195-0.435-0.435zM7.527 17.851v-3.005c0-0.24 0.195-0.435 0.435-0.435h3.005c0.24 0 0.435 0.195 0.435 0.435v3.005c0 0.24-0.195 0.435-0.435 0.435h-3.005c-0.24 0-0.435-0.195-0.435-0.435zM21.488 29.287h-10.976c-0.768 0-1.391-0.623-1.391-1.391s0.623-1.391 1.391-1.391h10.976c0.768 0 1.391 0.623 1.391 1.391s-0.623 1.391-1.391 1.391zM14.498 20.464h3.005c0.24 0 0.435 0.195 0.435 0.435v3.005c0 0.24-0.195 0.435-0.435 0.435h-3.005c-0.24 0-0.435-0.195-0.435-0.435v-3.005c0-0.24 0.195-0.435 0.435-0.435zM14.063 17.851v-3.005c0-0.24 0.195-0.435 0.435-0.435h3.005c0.24 0 0.435 0.195 0.435 0.435v3.005c0 0.24-0.195 0.435-0.435 0.435h-3.005c-0.24 0-0.435-0.195-0.435-0.435zM24.038 24.338h-3.005c-0.24 0-0.435-0.195-0.435-0.435v-3.005c0-0.24 0.195-0.435 0.435-0.435h3.005c0.24 0 0.435 0.195 0.435 0.435v3.005c0 0.24-0.195 0.435-0.435 0.435zM24.038 18.286h-3.005c-0.24 0-0.435-0.195-0.435-0.435v-3.005c0-0.24 0.195-0.435 0.435-0.435h3.005c0.24 0 0.435 0.195 0.435 0.435v3.005c0 0.24-0.195 0.435-0.435 0.435zM24.626 10.41c0 0.821-0.665 1.486-1.486 1.486h-14.28c-0.821 0-1.486-0.665-1.486-1.486v-6.071c0-0.821 0.665-1.486 1.486-1.486h14.28c0.821 0 1.486 0.665 1.486 1.486v6.071z"></path>
</symbol>
<symbol id="iconVector-16" viewBox="0 0 32 32">
<path d="M32 3.223l-3.223-3.223-12.777 12.777-12.777-12.777-3.223 3.223 12.777 12.777-12.777 12.777 3.223 3.223 12.777-12.777 12.777 12.777 3.223-3.223-12.777-12.777 12.777-12.777z"></path>
</symbol>
<symbol id="iconclose-1" viewBox="0 0 32 32">
<path fill="#fff" style="fill: var(--color1, #fff)" d="M32 16c0 8.837-7.163 16-16 16s-16-7.163-16-16c0-8.837 7.163-16 16-16s16 7.163 16 16z"></path>
<path fill="none" stroke="#000" style="stroke: var(--color2, #000)" stroke-linejoin="miter" stroke-linecap="butt" stroke-miterlimit="4" stroke-width="1.0667" d="M31.467 16c0 8.542-6.925 15.467-15.467 15.467s-15.467-6.925-15.467-15.467c0-8.542 6.925-15.467 15.467-15.467s15.467 6.925 15.467 15.467z"></path>
<path fill="#000" style="fill: var(--color2, #000)" d="M22.4 10.782l-1.182-1.182-4.685 4.685-4.685-4.685-1.182 1.182 4.685 4.685-4.685 4.685 1.182 1.182 4.685-4.685 4.685 4.685 1.182-1.182-4.685-4.685 4.685-4.685z"></path>
</symbol>
</defs>
</svg>
